<svg width="29" height="29" viewBox="0 0 29 29" fill="none" xmlns="http://www.w3.org/2000/svg">
<path fill-rule="evenodd" clip-rule="evenodd" d="M8.15625 14.5C8.65741 14.5 9.0625 14.9051 9.0625 15.4062V24.4688C9.0625 24.9699 8.65741 25.375 8.15625 25.375H4.53125C4.03009 25.375 3.625 24.9699 3.625 24.4688V15.4062C3.625 14.9051 4.03009 14.5 4.53125 14.5H8.15625ZM24.4688 3.625C24.9699 3.625 25.375 4.03009 25.375 4.53125V24.4688C25.375 24.9699 24.9699 25.375 24.4688 25.375H20.8438C20.3426 25.375 19.9375 24.9699 19.9375 24.4688V4.53125C19.9375 4.03009 20.3426 3.625 20.8438 3.625H24.4688ZM16.3125 9.0625C16.8137 9.0625 17.2188 9.46759 17.2188 9.96875V24.4688C17.2188 24.9699 16.8137 25.375 16.3125 25.375H12.6875C12.1863 25.375 11.7812 24.9699 11.7812 24.4688V9.96875C11.7812 9.46759 12.1863 9.0625 12.6875 9.0625H16.3125ZM7.25 16.3125H5.4375V23.5625H7.25V16.3125ZM23.5625 5.4375H21.75V23.5625H23.5625V5.4375ZM15.4062 10.875H13.5938V23.5625H15.4062V10.875Z" fill="#D8CDDF"/>
</svg>