<svg width="36" height="36" viewBox="0 0 36 36" fill="none" xmlns="http://www.w3.org/2000/svg">
<path d="M33.75 24.75C33.75 27.2353 31.7353 29.25 29.25 29.25H6.75C4.26473 29.25 2.25 27.2353 2.25 24.75V11.25C2.25 8.76473 4.26473 6.75 6.75 6.75H29.25C31.7353 6.75 33.75 8.76473 33.75 11.25V24.75ZM31.5 16.875H4.5V24.75C4.5 25.9362 5.41786 26.9079 6.58209 26.9938L6.75 27H29.25C30.4362 27 31.4079 26.0821 31.4938 24.9179L31.5 24.75V16.875ZM29.25 9H6.75C5.56383 9 4.59211 9.91786 4.50619 11.0821L4.5 11.25V14.625H31.5V11.25C31.5 10.0638 30.5821 9.09211 29.4179 9.00619L29.25 9Z" fill="#D8CDDF"/>
</svg>