<svg width="200" height="168" viewBox="0 0 200 168" fill="none" xmlns="http://www.w3.org/2000/svg">
<path d="M39.7236 43.1102C39.7236 42.729 39.7672 42.349 39.8536 41.9777L48.5259 4.68649C49.0592 2.39366 51.9047 1.58017 53.5693 3.24471L89.8533 39.5287L37.7185 88.6558L34.9595 71.1827C34.8139 70.2607 35.3256 69.3605 36.1923 69.0139L38.4664 68.1042C39.2257 67.8005 39.7236 67.0651 39.7236 66.2473L39.7236 43.1102Z" fill="#5A2172"/>
<path d="M160.036 43.1102C160.036 42.729 159.992 42.349 159.906 41.9777L151.234 4.68649C150.7 2.39366 147.855 1.58017 146.19 3.24471L109.906 39.5287L162.041 88.6558L164.8 71.1827C164.946 70.2607 164.434 69.3605 163.567 69.0139L161.293 68.1042C160.534 67.8005 160.036 67.0651 160.036 66.2473L160.036 43.1102Z" fill="#5A2172"/>
<circle cx="99.3438" cy="101.984" r="66.0156" fill="url(#paint0_linear)"/>
<path d="M122.765 126.936V135H82.7326V68.472H92.0446V126.936H122.765Z" fill="white"/>
<defs>
<linearGradient id="paint0_linear" x1="99.3438" y1="35.9688" x2="99.3438" y2="168" gradientUnits="userSpaceOnUse">
<stop stop-color="#512472"/>
<stop offset="1" stop-color="#B1016E"/>
</linearGradient>
</defs>
</svg>