<svg width="78" height="78" viewBox="0 0 78 78" fill="none" xmlns="http://www.w3.org/2000/svg">
<g filter="url(#filter0_d)">
<path d="M19.9999 16.9996L22.9999 15.9996L27.9999 20.4996L30.9999 23.4996L32.9999 23.9997L17.4999 37.4997L16.4999 32.4997L17.9999 30.9997L18 23.9996L19.9999 16.9996Z" fill="white"/>
<path d="M63.5 39.9995C64.5 52.9995 52.8209 60.9995 40.2644 60.9995C27.7078 60.9995 17 53.9198 17 41.2324C17.5287 28.9447 28.5 22.9995 39.7356 21.9995C52 21.4995 63.5 30.3831 63.5 39.9995Z" fill="white"/>
<path d="M59.5805 16.8631L57.9999 15.9999L56.5805 15.8631L51.9999 20.5L49.4999 23.5L47.4999 23.5L63.0805 37.4999L63.4999 32.4999L61.9999 31L61.9999 23.5L59.5805 16.8631Z" fill="white"/>
<path d="M43.2548 45.1317C43.2548 45.8145 41.7788 47.6043 39.958 47.6043C38.1372 47.6043 36.6611 45.8145 36.6611 45.1317C36.6611 44.4489 38.1372 43.4833 39.958 43.4833C41.7788 43.4833 43.2548 44.4489 43.2548 45.1317Z" fill="#512472"/>
<path d="M40.1641 47.4054V48.6454V49.6649L37.4059 50.6383C36.9215 50.8093 36.3958 50.8253 35.9018 50.6842V50.6842C34.6911 50.3383 33.9328 49.1387 34.1398 47.8966L34.1886 47.6043" stroke="#512472" stroke-width="0.5"/>
<path d="M39.958 49.6649L43.0704 50.5986C43.7129 50.7914 44.4069 50.7045 44.9821 50.3594V50.3594C45.7002 49.9286 46.1396 49.1525 46.1396 48.3151L46.1396 47.6044" stroke="#512472" stroke-width="0.5"/>
<path d="M63.5209 42.1956V42.1956C62.9106 50.941 56.5665 58.2172 47.9858 60.0132L44.7655 60.6872C41.2242 61.4284 37.5566 61.3089 34.071 60.3386L30.7395 59.4113C20.9795 56.6946 15.0731 46.7919 17.3209 36.9133V36.9133C17.3318 36.8652 17.3333 36.8155 17.3252 36.7669L16.6402 32.6395C16.5585 32.1469 16.847 31.668 17.3207 31.5101V31.5101C17.7352 31.3719 18.0149 30.9839 18.0149 30.5469L18.0149 25.2429C18.0149 24.8857 18.0531 24.5296 18.129 24.1806L19.3758 18.4458C19.8801 16.1265 22.7504 15.2835 24.4287 16.9618L30.937 23.4702C31.0732 23.6064 31.2779 23.649 31.4575 23.5791V23.5791C37.1055 21.3827 43.3954 21.3734 49.0434 23.5699V23.5699C49.2351 23.6445 49.453 23.5898 49.5869 23.4337L55.0757 17.0302C56.5803 15.2749 59.4213 15.8094 60.185 17.9916L61.7233 22.3868C61.9091 22.9177 62.004 23.4761 62.004 24.0385L62.004 31.0629C62.004 31.4613 62.327 31.7843 62.7255 31.7843V31.7843C63.1517 31.7843 63.485 32.1518 63.4435 32.576L63.0269 36.8405" stroke="#512472" stroke-width="0.5"/>
<circle cx="31.42" cy="35.7201" r="4.54378" fill="#231C17"/>
<circle cx="48.5855" cy="35.7201" r="4.54378" fill="#231C17"/>
<circle cx="47.5756" cy="34.7104" r="1.51459" fill="white"/>
<circle cx="30.4103" cy="34.7104" r="1.51459" fill="white"/>
<path d="M51.532 34.4735C52.8139 34.0462 52.221 36.8192 51.532 37.4645C50.8431 38.1098 48.541 39.0969 48.541 37.8917C48.541 37.0372 49.8229 37.4644 50.6774 36.6099C51.532 35.7553 50.6775 34.9007 51.532 34.4735Z" fill="#BC9BD3"/>
<path d="M34.3665 34.4735C35.6484 34.0462 35.0554 36.8192 34.3665 37.4645C33.6776 38.1098 31.3754 39.0969 31.3755 37.8917C31.3755 37.0372 32.6573 37.4644 33.5119 36.6099C34.3665 35.7553 33.5119 34.9007 34.3665 34.4735Z" fill="#BC9BD3"/>
</g>
<defs>
<filter id="filter0_d" x="3.29932" y="2.75952" width="74.1316" height="74.4918" filterUnits="userSpaceOnUse" color-interpolation-filters="sRGB">
<feFlood flood-opacity="0" result="BackgroundImageFix"/>
<feColorMatrix in="SourceAlpha" type="matrix" values="0 0 0 0 0 0 0 0 0 0 0 0 0 0 0 0 0 0 127 0"/>
<feOffset dy="4"/>
<feGaussianBlur stdDeviation="2"/>
<feColorMatrix type="matrix" values="0 0 0 0 0 0 0 0 0 0 0 0 0 0 0 0 0 0 0.25 0"/>
<feBlend mode="normal" in2="BackgroundImageFix" result="effect1_dropShadow"/>
<feBlend mode="normal" in="SourceGraphic" in2="effect1_dropShadow" result="shape"/>
</filter>
</defs>
</svg>