<svg width="25" height="25" viewBox="0 0 25 25" fill="none" xmlns="http://www.w3.org/2000/svg">
<path d="M17.1873 11.7185C17.3539 11.7185 17.5206 11.7717 17.6597 11.8775L17.7396 11.9474L23.2084 17.4162C23.4903 17.6981 23.512 18.1405 23.2734 18.4472L23.2084 18.5209L17.7396 23.9896C17.4341 24.2951 16.9404 24.2951 16.6349 23.9896C16.3529 23.7076 16.3313 23.2652 16.5698 22.9586L16.6349 22.8849L20.7701 18.7498H2.34351C1.91147 18.7498 1.56226 18.4005 1.56226 17.9685C1.56226 17.5673 1.86338 17.2375 2.25229 17.1925L2.34351 17.1873H20.7701L16.6349 13.0521C16.3294 12.7466 16.3294 12.2529 16.6349 11.9474C16.7074 11.8748 16.7935 11.8171 16.8883 11.7779C16.983 11.7386 17.0847 11.7184 17.1873 11.7185ZM7.81245 0.781006C8.01245 0.781006 8.21245 0.857569 8.36479 1.00991C8.67026 1.31538 8.67026 1.80913 8.36479 2.1146L4.22964 6.24976H22.6562C23.0882 6.24976 23.4375 6.59898 23.4375 7.03101C23.4375 7.46304 23.0882 7.81226 22.6562 7.81226H4.22964L8.36479 11.9474C8.67026 12.2529 8.67026 12.7466 8.36479 13.0521C8.05933 13.3576 7.56558 13.3576 7.26011 13.0521L1.79136 7.58335C1.48589 7.27788 1.48589 6.78413 1.79136 6.47866L7.26011 1.00991C7.33257 0.937266 7.41866 0.879648 7.51345 0.840366C7.60823 0.801084 7.70985 0.780911 7.81245 0.781006Z" fill="#512472"/>
</svg>